<svg width="62" height="84" viewBox="0 0 62 84" fill="none" xmlns="http://www.w3.org/2000/svg">
<rect width="62" height="65" rx="20" fill="white" fill-opacity="0.9"/>
<path d="M21.864 73.248C22.672 73.248 23.372 73.44 23.964 73.824L23.772 74.7L23.664 74.724C23.128 74.276 22.512 74.052 21.816 74.052C21.056 74.052 20.472 74.316 20.064 74.844C19.656 75.364 19.452 76.128 19.452 77.136C19.452 78.152 19.656 78.928 20.064 79.464C20.472 80 21.048 80.268 21.792 80.268C22.144 80.268 22.492 80.204 22.836 80.076C23.188 79.948 23.508 79.768 23.796 79.536L23.916 79.596L23.832 80.508C23.136 80.892 22.428 81.084 21.708 81.084C20.676 81.084 19.876 80.752 19.308 80.088C18.74 79.416 18.456 78.46 18.456 77.22C18.456 75.948 18.752 74.968 19.344 74.28C19.936 73.592 20.776 73.248 21.864 73.248ZM27.0064 75.408C27.5264 75.408 27.9344 75.536 28.2304 75.792C28.5344 76.048 28.6864 76.4 28.6864 76.848C28.6864 76.984 28.6624 77.476 28.6144 78.324C28.5664 79.172 28.5424 79.668 28.5424 79.812C28.5424 79.988 28.5704 80.112 28.6264 80.184C28.6824 80.248 28.7784 80.28 28.9144 80.28C29.0344 80.28 29.1704 80.256 29.3224 80.208L29.4184 80.292L29.3224 80.832C29.0904 80.968 28.8624 81.048 28.6384 81.072C28.3904 81.048 28.1904 80.96 28.0384 80.808C27.8944 80.656 27.8184 80.448 27.8104 80.184H27.7264C27.2944 80.624 26.8664 80.924 26.4424 81.084C25.9064 81.084 25.4864 80.952 25.1824 80.688C24.8864 80.416 24.7384 80.048 24.7384 79.584C24.7384 79.232 24.8304 78.952 25.0144 78.744C25.2064 78.536 25.4864 78.388 25.8544 78.3L27.7984 77.844L27.8104 77.064C27.8104 76.752 27.7264 76.512 27.5584 76.344C27.3984 76.176 27.1664 76.092 26.8624 76.092C26.5904 76.092 26.3184 76.156 26.0464 76.284C25.7744 76.412 25.4824 76.612 25.1704 76.884L25.0744 76.836L24.9544 76.152C25.6184 75.656 26.3024 75.408 27.0064 75.408ZM26.0464 78.876C25.8864 78.924 25.7704 78.992 25.6984 79.08C25.6264 79.16 25.5904 79.284 25.5904 79.452C25.5904 79.716 25.6624 79.924 25.8064 80.076C25.9584 80.22 26.1584 80.292 26.4064 80.292C26.8464 80.292 27.2944 80.008 27.7504 79.44L27.7864 78.456L26.0464 78.876ZM31.6733 78.588L31.7333 81H30.7853L30.8573 78.66L30.7973 72.66L31.7453 72.576L31.6733 78.588ZM40.5782 77.268C40.5862 76.94 40.5102 76.684 40.3502 76.5C40.1902 76.316 39.9542 76.224 39.6422 76.224C39.1302 76.224 38.5982 76.5 38.0462 77.052L38.0222 78.612L38.0702 81H37.0982L37.1702 77.268C37.1782 76.94 37.1022 76.684 36.9422 76.5C36.7822 76.316 36.5462 76.224 36.2342 76.224C35.7302 76.224 35.1862 76.508 34.6022 77.076V78.588L34.6502 81H33.7022L33.7622 78.672L33.7142 75.564L34.6142 75.48V76.284H34.6862C35.1822 75.844 35.6902 75.56 36.2102 75.432C36.6582 75.432 37.0262 75.512 37.3142 75.672C37.6022 75.824 37.8062 76.048 37.9262 76.344H37.9982C38.5022 75.888 39.0422 75.584 39.6182 75.432C40.2262 75.432 40.6862 75.572 40.9982 75.852C41.3102 76.132 41.4622 76.532 41.4542 77.052L41.4302 78.612L41.4782 81H40.5182L40.5782 77.268Z" fill="white"/>
<path d="M48.0365 31.6929C48.0165 31.5125 47.9964 31.322 47.9663 31.1415C47.9162 30.7405 47.8761 30.3294 47.816 29.9184C47.4049 27.0109 46.3321 24.344 44.6478 22.008C43.2041 19.9928 41.3694 18.3586 39.2138 17.1555C37.2588 16.0627 35.1033 15.381 32.7973 15.1203C32.1356 15.0401 31.4539 15 30.7922 15C29.6192 15 28.4562 15.1203 27.2932 15.3609V15.3509L27.1228 15.401C26.8521 15.4612 26.5914 15.5213 26.3207 15.5915C25.9798 15.6817 25.6289 15.792 25.288 15.9023C24.9772 15.9926 24.7166 16.0728 24.4659 16.163C21.7489 17.1355 19.3828 18.7697 17.4278 21.0255C15.4728 23.2713 14.1494 25.8679 13.4777 28.7253C13.0064 30.7405 12.8861 32.7557 13.1067 34.7207C13.3373 36.7259 13.8486 38.6007 14.6306 40.285C15.4828 42.1097 16.6458 43.7339 18.0795 45.1074C19.6836 46.6414 21.5685 47.8344 23.8443 48.7568C24.8369 49.1578 25.8094 49.3483 26.7117 49.4887C27.1829 49.5889 27.6742 49.6691 28.1554 49.7293C28.3258 49.7493 28.4862 49.7694 28.6567 49.7895C29.178 49.8797 29.8397 49.9198 30.6318 49.9198C30.9526 49.9198 31.2634 49.9098 31.5541 49.8997L31.3135 50L32.3562 49.8596C32.7973 49.8296 33.1482 49.7794 33.3287 49.7494L33.3788 49.7393C33.4089 49.7293 33.429 49.7193 33.449 49.7093C34.7724 49.5188 36.0457 49.208 37.2287 48.7668C38.8028 48.1753 40.2665 47.3833 41.5599 46.3907C43.1038 45.2077 44.4172 43.774 45.4398 42.1097C46.4625 40.4655 47.1643 38.721 47.5352 36.9063C47.6555 36.3048 47.7458 35.6932 47.826 35.0917C47.8661 34.8109 47.9062 34.5402 47.9463 34.2595C47.9563 34.2094 47.9663 34.1492 47.9764 34.0991L47.9964 34.0089L48.0064 31.7531L48.0365 31.6929ZM34.2811 20.3538V20.0831V20.3538C35.5845 20.3538 36.6673 21.4466 36.6573 22.7299C36.6472 24.0132 35.5644 25.106 34.2811 25.106C32.9978 25.106 31.9151 24.0132 31.9151 22.7299C31.9251 21.4466 33.0079 20.3538 34.2811 20.3538ZM36.9179 46.1701C36.0156 47.5437 34.8125 48.5463 33.3588 49.1578C33.038 49.1979 32.7071 49.238 32.3762 49.2681C31.2133 49.3684 30.0102 49.3583 28.777 49.228C28.3459 49.1478 27.9248 49.0876 27.5137 49.0275C27.2932 48.9974 27.0726 48.9673 26.852 48.9272C25.5888 48.6666 24.3657 48.2655 23.2127 47.7442C21.9494 47.1727 20.7764 46.4509 19.7237 45.6087C18.7612 44.8367 17.899 43.9745 17.1571 43.0321C16.2648 41.8992 15.5229 40.656 14.9615 39.3225C14.4401 38.0693 14.0892 36.8763 13.8887 35.6531C13.8185 35.1919 13.7584 34.7107 13.6982 34.2395C13.6681 34.0289 13.6481 33.8184 13.618 33.6078V31.6227C13.618 31.6127 13.618 31.6127 13.628 31.6027C13.6381 31.5526 13.6581 31.4924 13.6581 31.4222C13.7684 30.0587 14.0291 28.7253 14.4301 27.4821C14.9514 25.8679 15.7034 24.344 16.6859 22.9504C17.8689 21.2661 19.3427 19.8023 21.0572 18.6093C22.4407 17.6468 23.9245 16.9049 25.4785 16.3836C25.7392 16.3033 26.0099 16.2332 26.2806 16.163C26.4109 16.1229 26.5513 16.0928 26.6816 16.0527C26.6415 16.3435 26.6114 16.6242 26.5713 16.9049C26.451 17.8072 26.3407 18.6694 26.2505 19.5316C26.0801 21.0255 25.9397 22.8101 26.1502 24.6348C26.3307 26.2188 26.7618 27.5322 27.4536 28.6651C28.1153 29.7479 28.9374 30.6703 29.9099 31.3922C30.8824 32.124 31.895 32.8359 32.9277 33.4875C33.2585 33.6981 33.6094 33.8485 33.9603 33.9989C34.2009 34.0991 34.4315 34.1994 34.6521 34.3197C36.0958 35.0816 37.1385 35.994 37.8403 37.1169C38.4719 38.1295 38.7727 39.2824 38.7326 40.5357C38.6424 42.5809 38.0408 44.4658 36.9179 46.1701Z" fill="#263435"/>
<path d="M27.2729 37.1269H27.2328C25.6287 37.1269 24.3754 38.3501 24.3253 39.9843C24.2852 41.5683 25.5685 42.8917 27.1927 42.9318C27.2127 42.9318 27.2428 42.9318 27.2729 42.9318C28.8269 42.9318 30.1102 41.6385 30.1403 40.0444C30.1503 39.2824 29.8595 38.5506 29.3181 37.9991C28.7768 37.4477 28.0549 37.1369 27.2729 37.1269Z" fill="#263435"/>
</svg>
