<svg width="62" height="84" viewBox="0 0 62 84" fill="none" xmlns="http://www.w3.org/2000/svg">
<rect width="62" height="65" rx="20" fill="white" fill-opacity="0.9"/>
<path d="M20.088 74.136L20.064 76.812L21.36 76.836L22.608 76.8L22.68 76.896L22.596 77.628L21.264 77.592L20.052 77.604L20.04 78.6L20.088 81H19.116L19.176 78.684L19.116 73.308H23.208L23.28 73.404L23.196 74.172L21.432 74.112L20.088 74.136ZM25.7815 75.408C26.5255 75.408 27.1015 75.652 27.5095 76.14C27.9255 76.62 28.1335 77.3 28.1335 78.18C28.1335 79.108 27.9175 79.828 27.4855 80.34C27.0535 80.844 26.4375 81.096 25.6375 81.096C24.8855 81.096 24.3015 80.856 23.8855 80.376C23.4775 79.888 23.2735 79.204 23.2735 78.324C23.2735 77.396 23.4895 76.68 23.9215 76.176C24.3615 75.664 24.9815 75.408 25.7815 75.408ZM25.7215 76.08C25.2175 76.08 24.8335 76.252 24.5695 76.596C24.3055 76.94 24.1735 77.444 24.1735 78.108C24.1735 78.876 24.3015 79.452 24.5575 79.836C24.8215 80.22 25.2015 80.412 25.6975 80.412C26.2015 80.412 26.5855 80.244 26.8495 79.908C27.1135 79.572 27.2455 79.068 27.2455 78.396C27.2455 77.636 27.1135 77.06 26.8495 76.668C26.5935 76.276 26.2175 76.08 25.7215 76.08ZM31.6041 75.408C31.8521 75.408 32.1081 75.44 32.3721 75.504C32.6441 75.56 32.8801 75.636 33.0801 75.732L32.9121 76.56L32.8041 76.596C32.3881 76.324 31.9761 76.188 31.5681 76.188C31.0961 76.188 30.7281 76.368 30.4641 76.728C30.2001 77.088 30.0681 77.592 30.0681 78.24C30.0681 78.888 30.2041 79.4 30.4761 79.776C30.7561 80.144 31.1401 80.328 31.6281 80.328C31.8441 80.328 32.0681 80.292 32.3001 80.22C32.5401 80.148 32.7641 80.048 32.9721 79.92L33.0801 79.98L32.9721 80.784C32.4841 80.992 31.9961 81.096 31.5081 81.096C30.7801 81.096 30.2081 80.848 29.7921 80.352C29.3761 79.848 29.1681 79.16 29.1681 78.288C29.1681 77.4 29.3841 76.7 29.8161 76.188C30.2561 75.668 30.8521 75.408 31.6041 75.408ZM39.1613 80.292L39.0653 80.832C38.8333 80.968 38.6053 81.048 38.3813 81.072C38.1493 81.04 37.9613 80.96 37.8173 80.832C37.6813 80.696 37.5853 80.496 37.5293 80.232H37.4573C36.9773 80.664 36.4813 80.944 35.9693 81.072C35.3773 81.072 34.9253 80.932 34.6133 80.652C34.3093 80.372 34.1613 79.972 34.1693 79.452L34.1813 77.928L34.1453 75.564L35.1053 75.48L35.0333 79.224C35.0333 79.552 35.1093 79.808 35.2613 79.992C35.4213 80.176 35.6533 80.268 35.9573 80.268C36.4533 80.268 36.9493 80.028 37.4453 79.548V75.564L38.3573 75.48L38.2973 79.824C38.2973 79.992 38.3213 80.112 38.3693 80.184C38.4253 80.248 38.5173 80.28 38.6453 80.28C38.7733 80.28 38.9133 80.256 39.0653 80.208L39.1613 80.292ZM41.8584 75.42C42.3144 75.42 42.7544 75.508 43.1784 75.684L43.0464 76.464L42.9024 76.5C42.5024 76.236 42.1184 76.104 41.7504 76.104C41.4784 76.104 41.2584 76.18 41.0904 76.332C40.9224 76.484 40.8384 76.668 40.8384 76.884C40.8384 77.1 40.9224 77.276 41.0904 77.412C41.2664 77.54 41.5344 77.688 41.8944 77.856C42.2064 78 42.4544 78.132 42.6384 78.252C42.8304 78.364 42.9944 78.516 43.1304 78.708C43.2664 78.9 43.3344 79.136 43.3344 79.416C43.3344 79.712 43.2584 79.988 43.1064 80.244C42.9544 80.5 42.7304 80.708 42.4344 80.868C42.1384 81.02 41.7864 81.096 41.3784 81.096C40.8184 81.096 40.2864 80.964 39.7824 80.7L39.9024 79.884L40.0104 79.812C40.2344 80.004 40.4744 80.152 40.7304 80.256C40.9944 80.36 41.2424 80.412 41.4744 80.412C41.7704 80.412 42.0104 80.332 42.1944 80.172C42.3784 80.004 42.4704 79.808 42.4704 79.584C42.4704 79.368 42.3824 79.196 42.2064 79.068C42.0384 78.932 41.7744 78.78 41.4144 78.612C41.1024 78.468 40.8504 78.34 40.6584 78.228C40.4664 78.108 40.3024 77.948 40.1664 77.748C40.0304 77.548 39.9624 77.3 39.9624 77.004C39.9624 76.54 40.1304 76.16 40.4664 75.864C40.8104 75.568 41.2744 75.42 41.8584 75.42Z" fill="white"/>
<path d="M23.4508 33.7696C23.7021 33.9382 24.0416 33.8706 24.2096 33.6203C24.242 33.572 24.2756 33.5249 24.3099 33.4779C24.4876 33.2337 24.4336 32.8916 24.1893 32.714C23.9451 32.5364 23.6031 32.5903 23.4254 32.8346C23.3831 32.8928 23.3415 32.9511 23.3015 33.0107C23.1332 33.2615 23.2 33.6012 23.4508 33.7696V33.7696Z" fill="#253334"/>
<path d="M47.4531 48.9062H43.0612C46.3576 46.1282 44.4155 40.7031 40.0703 40.7031H39.6826C39.9518 39.7509 39.7576 39.3699 39.0202 36.0528C38.344 33.0107 36.0644 30.4796 32.938 29.5685C33.6824 29.067 34.2642 28.3425 34.5886 27.492C34.7022 27.4194 34.6726 27.4393 35.3708 26.4948C37.7981 23.2113 36.1329 18.849 32.6875 17.5708V17.1875C32.6875 15.9813 31.7062 15 30.5 15C29.2938 15 28.3125 15.9813 28.3125 17.1875V17.5708C24.866 18.8494 23.2027 23.2125 25.6292 26.4948C26.3301 27.4428 26.2977 27.4194 26.4114 27.492C26.7357 28.342 27.3169 29.0661 28.0607 29.5676C26.898 29.9064 25.809 30.4857 24.8719 31.2769C24.6411 31.4717 24.612 31.8167 24.8069 32.0475C25.0017 32.2782 25.3467 32.3074 25.5775 32.1125C27.5947 30.4094 30.3856 29.8442 32.964 30.724C32.172 33.701 29.7536 35.9365 26.6848 36.4779L26.2711 36.5509L26.6588 34.8061C26.7243 34.5113 26.5384 34.2192 26.2436 34.1536C25.9488 34.0881 25.6566 34.2741 25.5911 34.5688C25.464 35.1407 24.7564 38.3252 24.5925 39.0624H23.9375C23.6355 39.0624 23.3906 39.3073 23.3906 39.6093C23.3906 39.9113 23.6355 40.1562 23.9375 40.1562H25.9923C27.6345 40.1562 29.1785 39.5167 30.3398 38.3554C30.4466 38.2486 30.5 38.1087 30.5 37.9687C30.5089 37.9687 30.4735 38.1688 30.6602 38.3554C32.6628 40.358 34.6871 40.1562 37.0625 40.1562C37.3645 40.1562 37.6094 39.9114 37.6094 39.6094C37.6094 39.3074 37.3645 39.0625 37.0625 39.0625H36.4074L35.6782 35.7812H37.8188C37.9285 36.1509 37.8721 35.9311 38.6573 39.4643C38.9232 40.6606 38.0113 41.7969 36.7862 41.7969H32.2289C32.836 40.5224 31.8958 39.0625 30.4999 39.0625C30.1979 39.0625 29.953 39.3074 29.953 39.6094C29.953 39.9114 30.1979 40.1562 30.4999 40.1562C30.7188 40.1562 30.9247 40.2416 31.0798 40.3966C31.5922 40.909 31.2332 41.7969 30.5 41.7969H24.2137C23.1568 41.7969 22.2969 40.937 22.2969 39.8801C22.2969 39.5935 22.2796 39.7398 23.0473 36.2907C23.1242 35.945 23.2257 35.6035 23.3484 35.2757C23.4543 34.9928 23.3108 34.6777 23.0279 34.5718C22.7451 34.4659 22.43 34.6094 22.3241 34.8924C22.1837 35.2674 22.0677 35.6577 21.9798 36.053C21.2381 39.3853 21.0497 39.7589 21.3184 40.7031H20.9297C16.6056 40.7031 14.6343 46.1181 17.9352 48.9062H13.5469C13.2449 48.9062 13 49.1511 13 49.4531C13 49.7551 13.2449 50 13.5469 50H47.4531C47.7551 50 48 49.7551 48 49.4531C48 49.1511 47.7551 48.9062 47.4531 48.9062V48.9062ZM27.2188 25.9375C27.2188 22.9338 27.2034 23.0153 27.2647 22.6524C27.8053 22.6143 28.2828 22.2977 28.5286 21.8063C28.565 21.7333 28.6213 21.6716 28.6894 21.6294C28.8413 21.5362 28.6563 21.5625 32.0764 21.5625C32.5414 21.5625 32.3977 22.0297 33.0394 22.4279C33.2513 22.5579 33.4899 22.6346 33.7352 22.6523C33.7998 23.0346 33.7812 22.9902 33.7812 25.9375C33.7812 27.7468 32.3093 29.2188 30.5 29.2188C28.6907 29.2188 27.2188 27.7468 27.2188 25.9375ZM25.4627 48.9062C24.9916 48.9062 24.8619 48.2505 25.3024 48.0742C27.602 47.1545 27.4538 47.2192 27.5221 47.1738C28.6813 46.402 28.9005 46.1719 29.5065 46.1719C30.1921 46.1719 30.7984 46.6089 31.0152 47.2593L31.0749 47.4386C31.1653 47.7097 31.4488 47.8655 31.7264 47.7962L38.7031 46.052V48.9062H25.4627ZM22.2969 46.052L25.4453 46.8391L24.8962 47.0587C24.1506 47.357 23.7803 48.1625 24 48.9062H22.2969V46.052Z" fill="#253334"/>
</svg>
