<svg width="15" height="20" viewBox="0 0 15 20" fill="none" xmlns="http://www.w3.org/2000/svg">
<path d="M13.9971 6.52769C13.3648 5.23077 12.2787 4.50462 11.2279 3.80154C10.4448 3.27692 9.70635 2.78154 9.18327 2.07231L9.08635 1.94154C8.77866 1.52769 8.42789 1.05846 8.37404 0.664615C8.36943 0.632308 8.35097 0.606154 8.34174 0.573846C8.32789 0.52 8.3125 0.469231 8.28789 0.42C8.26943 0.38 8.24327 0.344615 8.21558 0.307692C8.18327 0.266154 8.1525 0.226154 8.1125 0.192308C8.07404 0.158462 8.0325 0.135385 7.98943 0.109231C7.94943 0.0861539 7.9125 0.0646154 7.86789 0.0492308C7.81404 0.0292308 7.75866 0.0215384 7.7002 0.0153846C7.67097 0.0138461 7.64635 0 7.61558 0C7.59712 0 7.58174 0.00923081 7.56481 0.0107693C7.54635 0.0123077 7.52943 0.00461538 7.51097 0.0076923C7.47712 0.0123077 7.45097 0.0307693 7.41866 0.04C7.36635 0.0538462 7.31712 0.0676923 7.27097 0.0923077C7.22789 0.113846 7.19097 0.141538 7.15404 0.172308C7.11404 0.203077 7.07558 0.233846 7.04327 0.272308C7.01097 0.309231 6.98789 0.349231 6.96327 0.390769C6.93866 0.433846 6.91558 0.475385 6.89866 0.523077C6.88174 0.570769 6.87558 0.62 6.86943 0.672308C6.86174 0.703077 6.84635 0.733846 6.84635 0.769231V14.4769C6.20174 14.0862 5.40789 13.8462 4.53866 13.8462C2.41712 13.8462 0.692505 15.2262 0.692505 16.9231C0.692505 18.62 2.41712 20 4.53866 20C6.6602 20 8.38481 18.62 8.38481 16.9231V7.95692C9.5402 8.39846 11.431 9.52308 11.951 12.1492C11.854 12.2923 11.7617 12.4477 11.654 12.5692C11.3725 12.8877 11.4048 13.3738 11.7233 13.6538C11.8694 13.7831 12.051 13.8462 12.231 13.8462C12.4448 13.8462 12.6556 13.7569 12.8079 13.5846C13.0125 13.3523 13.1956 13.0769 13.371 12.7938C13.391 12.7692 13.4063 12.7462 13.4233 12.72C14.0448 11.68 14.4571 10.3646 14.5356 9.06462C14.5864 8.22923 14.4002 7.35231 13.9971 6.52769ZM4.53866 18.4615C3.28789 18.4615 2.23097 17.7569 2.23097 16.9231C2.23097 16.0892 3.28789 15.3846 4.53866 15.3846C5.78943 15.3846 6.84635 16.0892 6.84635 16.9231C6.84635 17.7569 5.78943 18.4615 4.53866 18.4615ZM13.0017 8.96769C12.9802 9.32769 12.9248 9.68769 12.8463 10.04C11.7648 7.86923 9.80327 6.73846 8.38481 6.32V3.49385C8.98789 4.13692 9.68789 4.61846 10.374 5.07692C11.2956 5.69385 12.1664 6.27692 12.6171 7.20154C12.9002 7.77846 13.0356 8.40769 13.0017 8.96769Z" fill="white"/>
</svg>
